<svg width="50" height="58" viewBox="0 0 50 58" fill="none" xmlns="http://www.w3.org/2000/svg">
<path fill-rule="evenodd" clip-rule="evenodd" d="M31.8125 2.80469C28.375 1.52865 24.0651 0.890625 18.8828 0.890625H0.171875V58H15.6016V37.2188H19.5078L31.6172 58H49.1172L32.4766 33.1172C34.4818 31.9974 36.2005 30.6953 37.6328 29.2109C39.0911 27.7005 40.2109 25.9948 40.9922 24.0938C41.7734 22.1927 42.1641 20.0833 42.1641 17.7656C42.1641 14.0417 41.2917 10.9297 39.5469 8.42969C37.8281 5.92969 35.25 4.05469 31.8125 2.80469ZM22.4697 15.6008L20 8L17.5303 15.6008H9.53838L16.004 20.2984L13.5344 27.8992L20 23.2016L26.4656 27.8992L23.996 20.2984L30.4616 15.6008H22.4697Z" fill="#FFD43B"/>
</svg>
